<?xml version="1.0" standalone="no"?>
<!DOCTYPE svg PUBLIC "-//W3C//DTD SVG 20010904//EN"
 "http://www.w3.org/TR/2001/REC-SVG-20010904/DTD/svg10.dtd">
<svg version="1.0" xmlns="http://www.w3.org/2000/svg"
 width="48.000000pt" height="48.000000pt" viewBox="0 0 48.000000 48.000000"
 preserveAspectRatio="xMidYMid meet">

<g transform="translate(0.000000,48.000000) scale(0.100000,-0.100000)"
fill="#000000" stroke="none">
<path d="M433 438 c-12 -6 -24 -21 -27 -34 -4 -13 -12 -24 -19 -24 -33 0 -380
-49 -385 -55 -3 -3 -1 -14 5 -23 6 -10 16 -44 23 -75 l13 -57 133 0 133 0 21
-30 c12 -16 18 -34 15 -40 -4 -6 -69 -10 -163 -10 -86 0 -152 -4 -145 -8 6 -4
13 -21 15 -37 2 -22 9 -31 26 -33 27 -4 40 23 23 49 -11 18 -6 19 83 19 l95 0
3 -32 c2 -25 8 -34 26 -36 27 -4 40 23 24 48 -9 15 -7 19 9 23 23 6 25 34 3
65 -8 12 -11 22 -7 22 5 0 27 54 48 121 34 103 44 123 67 135 45 23 27 34 -19
12z m-103 -103 c0 -18 -5 -25 -20 -25 -35 0 -24 45 13 49 4 1 7 -10 7 -24z
m56 9 c-3 -9 -6 -20 -6 -25 0 -5 -8 -9 -19 -9 -14 0 -17 6 -13 25 3 17 11 25
24 25 14 0 18 -5 14 -16z m-108 -11 c-5 -26 -38 -29 -38 -4 0 15 6 21 21 21
14 0 19 -5 17 -17z m-98 -13 c0 -11 -4 -20 -10 -20 -5 0 -10 9 -10 20 0 11 5
20 10 20 6 0 10 -9 10 -20z m50 0 c0 -11 -7 -20 -15 -20 -8 0 -15 9 -15 20 0
11 7 20 15 20 8 0 15 -9 15 -20z m-130 -5 c0 -8 -7 -15 -15 -15 -9 0 -12 6 -9
15 4 8 10 15 15 15 5 0 9 -7 9 -15z m40 0 c0 -8 -4 -15 -10 -15 -5 0 -10 7
-10 15 0 8 5 15 10 15 6 0 10 -7 10 -15z m-90 -15 c0 -5 -5 -10 -11 -10 -5 0
-7 5 -4 10 3 6 8 10 11 10 2 0 4 -4 4 -10z m315 -22 c-4 -13 -11 -27 -16 -32
-15 -16 -20 0 -10 28 13 32 35 36 26 4z m-185 -13 c0 -14 -4 -25 -10 -25 -11
0 -14 33 -3 43 11 11 13 8 13 -18z m50 0 c0 -16 -6 -25 -15 -25 -9 0 -15 9
-15 25 0 16 6 25 15 25 9 0 15 -9 15 -25z m40 0 c0 -16 -6 -25 -15 -25 -9 0
-15 9 -15 25 0 16 6 25 15 25 9 0 15 -9 15 -25z m50 0 c0 -16 -6 -25 -15 -25
-9 0 -15 9 -15 25 0 16 6 25 15 25 9 0 15 -9 15 -25z m-260 -5 c0 -11 -4 -20
-10 -20 -5 0 -10 9 -10 20 0 11 5 20 10 20 6 0 10 -9 10 -20z m40 0 c0 -11 -4
-20 -9 -20 -5 0 -11 9 -14 20 -3 13 0 20 9 20 8 0 14 -9 14 -20z m40 0 c0 -11
-4 -20 -10 -20 -5 0 -10 9 -10 20 0 11 5 20 10 20 6 0 10 -9 10 -20z m-70 -62
c0 -5 -4 -8 -10 -8 -5 0 -10 10 -10 23 0 18 2 19 10 7 5 -8 10 -18 10 -22z
m30 12 c0 -11 -4 -20 -10 -20 -5 0 -10 9 -10 20 0 11 5 20 10 20 6 0 10 -9 10
-20z m40 0 c0 -11 -4 -20 -10 -20 -5 0 -10 9 -10 20 0 11 5 20 10 20 6 0 10
-9 10 -20z m40 0 c0 -11 -4 -20 -10 -20 -5 0 -10 9 -10 20 0 11 5 20 10 20 6
0 10 -9 10 -20z m50 16 c0 -2 -3 -11 -6 -20 -9 -23 -24 -20 -24 4 0 11 7 20
15 20 8 0 15 -2 15 -4z m40 -16 c0 -11 -7 -20 -15 -20 -8 0 -15 9 -15 20 0 11
7 20 15 20 8 0 15 -9 15 -20z m40 0 c0 -11 -7 -20 -15 -20 -8 0 -15 9 -15 20
0 11 7 20 15 20 8 0 15 -9 15 -20z m33 0 c-3 -11 -9 -20 -13 -20 -5 0 -6 9 -3
20 3 11 9 20 13 20 5 0 6 -9 3 -20z"/>
</g>
</svg>
